<svg id="Layer_1" data-name="Layer 1" xmlns="http://www.w3.org/2000/svg" viewBox="0 0 600 148.1"><defs><style>.cls-1{fill:#fff;}.cls-2{fill:#ec272a;}.cls-3{fill:#cc000a;}</style></defs><path class="cls-1" d="M47.39,82.73a23.49,23.49,0,0,1-2.17,10.68,18.11,18.11,0,0,1-5.88,6.85,24.11,24.11,0,0,1-8.79,3.65A51.8,51.8,0,0,1,19.64,105a93.17,93.17,0,0,1-9.7-.52A93.84,93.84,0,0,1,0,102.94V34.31c2.66-.46,5.6-.86,8.79-1.2a89.68,89.68,0,0,1,9.48-.51,42.63,42.63,0,0,1,13,1.65,21,21,0,0,1,7.88,4.34,13.81,13.81,0,0,1,3.88,6,22.07,22.07,0,0,1,1,6.62,16.3,16.3,0,0,1-2.46,8.91,17.93,17.93,0,0,1-6.56,6.17q7.19,2.63,9.76,7.08A18.37,18.37,0,0,1,47.39,82.73ZM19.53,61.49q5.37,0,8.11-2.34a8.05,8.05,0,0,0,2.74-6.45,8.88,8.88,0,0,0-.8-4.06,6.09,6.09,0,0,0-2.17-2.4,8.46,8.46,0,0,0-3.2-1.14,24.41,24.41,0,0,0-3.77-.28c-1.07,0-2.17,0-3.31.11s-2.17.19-3.08.34V61.49ZM14.05,73.14V92.32a32.54,32.54,0,0,0,3.25.34q1.77.12,3.48.12a26.91,26.91,0,0,0,4.69-.4,11.58,11.58,0,0,0,4.05-1.48,8.5,8.5,0,0,0,2.91-3.09,10.16,10.16,0,0,0,1.14-5.08c0-3.43-1.08-5.88-3.25-7.37s-5.08-2.22-8.74-2.22Z"/><path class="cls-1" d="M78.34,49a33.93,33.93,0,0,1,11,1.54,17.32,17.32,0,0,1,7,4.34,16.31,16.31,0,0,1,3.77,6.85,33.57,33.57,0,0,1,1.14,9.08v32c-2.05.45-5.1,1-9.13,1.6a91.62,91.62,0,0,1-13.59.91,43.54,43.54,0,0,1-9.31-.91,19.28,19.28,0,0,1-7.14-3,13.85,13.85,0,0,1-4.56-5.48A19.19,19.19,0,0,1,56,87.64a15.75,15.75,0,0,1,1.82-7.88,14.57,14.57,0,0,1,4.91-5.14,22.08,22.08,0,0,1,7.08-2.8A39.85,39.85,0,0,1,78.11,71a46.2,46.2,0,0,1,9.71.91V70.17a9.41,9.41,0,0,0-2.51-6.68q-2.52-2.68-8.68-2.69a50.66,50.66,0,0,0-7.71.57,34.61,34.61,0,0,0-6,1.38L61,51.44a44.93,44.93,0,0,1,7.42-1.66A65.57,65.57,0,0,1,78.34,49ZM79.6,94c1.52,0,3,0,4.45,0a32.06,32.06,0,0,0,3.77-.29V81.36c-.92-.15-2-.29-3.31-.4S82,80.79,81,80.79a30.77,30.77,0,0,0-4.23.28,13.67,13.67,0,0,0-3.6,1A6,6,0,0,0,70.69,84a6.32,6.32,0,0,0,1.83,8.5A14.29,14.29,0,0,0,79.6,94Z"/><path class="cls-1" d="M161.7,77.25A36.94,36.94,0,0,1,160,88.84a24.46,24.46,0,0,1-5,8.85,22.33,22.33,0,0,1-8.11,5.65,28.33,28.33,0,0,1-11,2,81.22,81.22,0,0,1-11.2-.8,58.35,58.35,0,0,1-9.59-2.05V27.23l14-2.4V51.67a24.46,24.46,0,0,1,5.71-1.89,29.81,29.81,0,0,1,5.48-.51,20.48,20.48,0,0,1,9.25,2A18.15,18.15,0,0,1,156.28,57a26.51,26.51,0,0,1,4.05,8.85A44,44,0,0,1,161.7,77.25Zm-14.27-.34q0-7.55-2.46-11.54a8.19,8.19,0,0,0-7.48-4A16.93,16.93,0,0,0,133,62a17.45,17.45,0,0,0-3.82,1.54V92.66a21.92,21.92,0,0,0,3.37.46c1.18.08,2.18.12,3,.12a10.84,10.84,0,0,0,8.68-3.72Q147.43,85.82,147.43,76.91Z"/><path class="cls-1" d="M192.54,49a34,34,0,0,1,11,1.54,17.32,17.32,0,0,1,7,4.34,16.31,16.31,0,0,1,3.77,6.85,33.57,33.57,0,0,1,1.14,9.08v32c-2.05.45-5.1,1-9.14,1.6a91.38,91.38,0,0,1-13.58.91,43.54,43.54,0,0,1-9.31-.91,19.28,19.28,0,0,1-7.14-3,14,14,0,0,1-4.57-5.48,19.34,19.34,0,0,1-1.6-8.28A15.65,15.65,0,0,1,172,79.76a14.57,14.57,0,0,1,4.91-5.14,22.08,22.08,0,0,1,7.08-2.8,39.78,39.78,0,0,1,8.34-.85,46.27,46.27,0,0,1,9.71.91V70.17a9.37,9.37,0,0,0-2.52-6.68q-2.5-2.68-8.68-2.69a50.63,50.63,0,0,0-7.7.57,34.61,34.61,0,0,0-6,1.38l-1.94-11.31a44.69,44.69,0,0,1,7.42-1.66A65.57,65.57,0,0,1,192.54,49Zm1.25,45c1.52,0,3,0,4.46,0a32.06,32.06,0,0,0,3.77-.29V81.36c-.92-.15-2-.29-3.32-.4s-2.47-.17-3.54-.17a30.73,30.73,0,0,0-4.22.28,13.67,13.67,0,0,0-3.6,1A5.89,5.89,0,0,0,184.89,84a6.33,6.33,0,0,0,1.82,8.5A14.34,14.34,0,0,0,193.79,94Z"/><path class="cls-1" d="M262.2,104.08a58.25,58.25,0,0,0-3.6-8.62,95.63,95.63,0,0,0-5.2-9,91.43,91.43,0,0,0-6-8.22,63.59,63.59,0,0,0-6-6.45v32.31h-14V33.4h14V62.75q2.52-3.21,5.26-7.09t5.19-7.76q2.46-3.88,4.51-7.65c1.37-2.51,2.52-4.8,3.43-6.85h15.87c-1.06,2.05-2.34,4.39-3.82,7s-3.18,5.37-5.08,8.22-3.94,5.77-6.11,8.74-4.44,5.82-6.8,8.56a95,95,0,0,1,7.2,7.88,101.22,101.22,0,0,1,6.9,9.54,110.49,110.49,0,0,1,5.89,10.39,74.47,74.47,0,0,1,4.22,10.33Z"/><path class="cls-1" d="M306.73,49a34,34,0,0,1,11,1.54,17.39,17.39,0,0,1,7,4.34,16.42,16.42,0,0,1,3.77,6.85,33.57,33.57,0,0,1,1.14,9.08v32c-2.06.45-5.1,1-9.14,1.6a91.43,91.43,0,0,1-13.59.91,43.45,43.45,0,0,1-9.3-.91,19.28,19.28,0,0,1-7.14-3A14,14,0,0,1,286,95.92a19.19,19.19,0,0,1-1.6-8.28,15.65,15.65,0,0,1,1.83-7.88,14.49,14.49,0,0,1,4.91-5.14,22,22,0,0,1,7.08-2.8,39.71,39.71,0,0,1,8.34-.85,46.1,46.1,0,0,1,9.7.91V70.17a9.41,9.41,0,0,0-2.51-6.68q-2.52-2.68-8.68-2.69a50.86,50.86,0,0,0-7.71.57,34.69,34.69,0,0,0-6,1.38l-1.94-11.31a44.69,44.69,0,0,1,7.42-1.66A65.53,65.53,0,0,1,306.73,49ZM308,94c1.52,0,3,0,4.45,0a31.71,31.71,0,0,0,3.77-.29V81.36c-.91-.15-2-.29-3.31-.4s-2.47-.17-3.54-.17a30.63,30.63,0,0,0-4.22.28,13.67,13.67,0,0,0-3.6,1A6,6,0,0,0,299.08,84a6.35,6.35,0,0,0,1.83,8.5A14.34,14.34,0,0,0,308,94Z"/><path class="cls-1" d="M390.33,50.41Q388.16,58,386.16,65.2T382,79.36q-2.17,6.92-4.63,13.53t-5.3,12.91a74,74,0,0,1-4.29,7.88,23.09,23.09,0,0,1-4.68,5.42,17.36,17.36,0,0,1-5.71,3.14,23.57,23.57,0,0,1-7.36,1,33.68,33.68,0,0,1-6.46-.57,20.83,20.83,0,0,1-4.85-1.49l2.63-11.76a21.65,21.65,0,0,0,4.05,1.43,17.18,17.18,0,0,0,3.83.4,8.55,8.55,0,0,0,6.62-2.74,21,21,0,0,0,4-6.51q-5-10.05-10-23a266.92,266.92,0,0,1-9.14-28.61h14.62q1,4.23,2.34,9t2.8,9.6q1.48,4.78,3.14,9.42t3.37,8.62q1.14-4,2.39-8.62t2.4-9.37c.76-3.16,1.5-6.33,2.23-9.53s1.39-6.24,2-9.14Z"/><path class="cls-1" d="M420.93,49a33.89,33.89,0,0,1,11,1.54,17.32,17.32,0,0,1,7,4.34,16.2,16.2,0,0,1,3.77,6.85,33.56,33.56,0,0,1,1.15,9.08v32c-2.06.45-5.11,1-9.14,1.6a91.62,91.62,0,0,1-13.59.91,43.54,43.54,0,0,1-9.31-.91,19.16,19.16,0,0,1-7.13-3,13.79,13.79,0,0,1-4.57-5.48,19.19,19.19,0,0,1-1.6-8.28,15.65,15.65,0,0,1,1.83-7.88,14.4,14.4,0,0,1,4.91-5.14,21.9,21.9,0,0,1,7.08-2.8A39.69,39.69,0,0,1,420.7,71a46.2,46.2,0,0,1,9.71.91V70.17a9.41,9.41,0,0,0-2.51-6.68q-2.52-2.68-8.68-2.69a50.66,50.66,0,0,0-7.71.57,34.47,34.47,0,0,0-6,1.38l-1.95-11.31A44.84,44.84,0,0,1,411,49.78,65.43,65.43,0,0,1,420.93,49Zm1.26,45c1.52,0,3,0,4.45,0a31.89,31.89,0,0,0,3.77-.29V81.36c-.91-.15-2-.29-3.31-.4s-2.48-.17-3.54-.17a30.77,30.77,0,0,0-4.23.28,13.67,13.67,0,0,0-3.6,1A6,6,0,0,0,413.28,84a6.35,6.35,0,0,0,1.83,8.5A14.29,14.29,0,0,0,422.19,94Z"/><path class="cls-2" d="M471.74,148.1,557.25,0,600,74.05,557.25,148.1Z"/><path class="cls-2" d="M471.74,0l85.51,148.1,42.75-74L557.25,0Z"/><path class="cls-3" d="M503.58,93l10.91-18.9,42.76,74.05Z"/></svg>